<svg xmlns="http://www.w3.org/2000/svg" viewBox="0 0 512 512" fill="#FFFFFF">
  <path d="M149.1 64.8L138.7 96H64c-17.7 0-32 14.3-32 32v32h96c88.4 0 160 71.6 160 160s-71.6 160-160 160H32V288c-17.7 0-32 14.3-32 32v32c0 17.7 14.3 32 32 32h96c123.7 0 224-100.3 224-224s-100.3-224-224-224l12.8-38.5C114.6 82.4 99.9 65 84.9 65c-13.7 0-25.3 9.4-28 22.7L43.9 128h-9.8c-59.9 0-108.5 51.9-102.2 111.8c6.1 59.9 58.8 108.2 118.7 108.2h52.8c23.4 0 43-16.5 47.7-38.8L158 277.8c3.9-19.4-10.5-37.8-30-37.8h-30c-11 0-20 9-20 20s9 20 20 20h30l-6.9 34.4c-1 4.8-5.2 8.6-10.1 8.6H70.5c-41.8 0-77.3-30.7-83.1-72.4C-18.3 190.2 17 149 70.5 149H168.3c10 0 16.4 10.8 11.2 19.6C189.3 181.2 200 198.1 200 215v20c0 5.5-4.5 10-10 10h-20c-5.5 0-10-4.5-10-10v-20c0-5.5 4.5-10 10-10h9.1c-5.8-20.5-16.8-38.7-31.8-53.7c-5-5-8.2-11.1-9.4-17.3H80C66.7 134 56 144.7 56 158V262.4C76.5 259.5 96 246.6 96 225.4c0-5.5 4.5-10 10-10h20c5.5 0 10 4.5 10 10c0 46.9-44.6 79.1-90.6 66.5C40.6 290.6 37.6 288.7 32 288v16.4c0 48.1 26.4 92.3 69.3 115.1l.2 .1c73.5 38.7 169.3 22.6 213-53.3c2.1-3.7 6.1-6.3 10.5-6.3h8c7.8 0 14 6.4 13.4 14.1c-4.2 55.8-41.7 104.2-103.3 139.6c-1.7 1-2.9 2.3-3.3 3.6c.4 1.3 1.5 2.9 3.7 5.4c3.6 4.2 9.3 7.2 13.9 7.2c37.6 0 60.5-30.7 117.4-30.7c42.6 0 76.9 23.7 90.9 58.5c1.4 3.4 3.5 4.8 5.1 5.3l0 0c1.9 .5 4.3 .1 7.2-2.3c20.6-17.4 40.2-81.2 40.2-112.4c0-3.6 2.4-6.7 5.8-7.7c51.9-14.8 93.7-55.8 110.1-107.4c53.7-168.9-142.1-284.4-238.8-161.3c-4.9 6.2-1.2 15.3 6.8 15.3c17.9 0 35.9-37.7 86.9-37.7c79.3 0 101.8 122.4 42.7 153.4c-4.9 2.6-10.3 2.3-14.9 0L368 304.3c-9.6-7.2-14.1-17.9-14.1-27.8V276c0-8.5 3.4-16.6 9.4-22.6l5.4-5.4c7.4-7.4 17.8-11.9 28.3-11.9h25.5c10.5 0 20.9 4.4 28.3 11.9l6.7 6.7c8.8 8.8 13.9 20.9 13.9 33.3v4.6c0 5.5-4.5 10-10 10h-20c-5.5 0-10-4.5-10-10V288c0-5.5-2.2-10.8-6.1-14.7l-6.7-6.7c-1.5-1.5-3.6-2.5-5.8-2.5h-25.5c-2.2 0-4.3 .9-5.8 2.5l-5.4 5.4c-1.2 1.2-1.9 2.8-1.9 4.6v.5c0 2 .9 3.9 2.4 5.1l43.8 32.9c8.1 6.1 18.5 8.3 28.4 6.1c20.1-4.5 35.4-23.2 35.4-45.3c0-19.8-11.6-38.1-30.1-45.8c-11.6-4.8-19.3-16.3-19.3-29.1V193c0-3.2 1.3-6.3 3.5-8.5l19.6-19.6c5.9-5.9 14.1-9.2 22.3-9.1c36.1 .9 71.8 16.9 93.7 38.5c8.7 8.5 13.6 20.1 13.6 32.3V283c0 16.7-10 30.6-22.2 35.8c-5.1 2.2-10.9-.5-12.4-5.8l-4.2-14.4c-3.2-10.9-19.5-10.4-21.8 .7l-22.9 104.4c-2.3 10.3 8.4 19 18.4 14.7C487.4 397.2 512 351.5 512 299.6V236.6c0-27.2-11.7-53.1-32.9-74.3c-17.2-17.2-36.9-31-57.7-41.6C394.8 108.2 363.6 96 328 96c-33.5 0-66.6 11.4-92.3 32.5C227.4 101.5 213 76.8 188 64c-16.2-8.3-42.8-17.6-113.4-8.5c-9.3 1.2-17.1 8.6-19.6 17.7z"/>
</svg>