<?xml version="1.0" encoding="UTF-8" standalone="no"?>
<svg width="512" height="512" viewBox="0 0 512 512" fill="none" xmlns="http://www.w3.org/2000/svg">
  <rect width="512" height="512" rx="128" fill="url(#paint0_linear)" />
  <g filter="url(#filter0_d)">
    <path d="M374 236.5C374 236.5 374 186.5 344 148.5C314 110.5 256 98.5 256 98.5C256 98.5 198 110.5 168 148.5C138 186.5 138 236.5 138 236.5V286.5C138 286.5 138 336.5 168 374.5C198 412.5 256 424.5 256 424.5C256 424.5 314 412.5 344 374.5C374 336.5 374 286.5 374 286.5V236.5Z" fill="black" fill-opacity="0.85" />
  </g>
  <path d="M225 200H185V325H225V200Z" fill="white" />
  <path d="M327 200H287V325H327V200Z" fill="white" />
  <path d="M235 200H277V260H235V200Z" fill="white" />
  <path d="M277 280H235V325H277V280Z" fill="white" />
  <path d="M225 160H287V180H225V160Z" fill="white" />
  <path d="M335 160H355V340H335V160Z" fill="white" />
  <path d="M157 160H177V340H157V160Z" fill="white" />
  <defs>
    <filter id="filter0_d" x="118" y="88.5" width="276" height="356" filterUnits="userSpaceOnUse" color-interpolation-filters="sRGB">
      <feFlood flood-opacity="0" result="BackgroundImageFix" />
      <feColorMatrix in="SourceAlpha" type="matrix" values="0 0 0 0 0 0 0 0 0 0 0 0 0 0 0 0 0 0 127 0" />
      <feOffset dy="10" />
      <feGaussianBlur stdDeviation="10" />
      <feColorMatrix type="matrix" values="0 0 0 0 0 0 0 0 0 0 0 0 0 0 0 0 0 0 0.25 0" />
      <feBlend mode="normal" in2="BackgroundImageFix" result="effect1_dropShadow" />
      <feBlend mode="normal" in="SourceGraphic" in2="effect1_dropShadow" result="shape" />
    </filter>
    <linearGradient id="paint0_linear" x1="0" y1="0" x2="512" y2="512" gradientUnits="userSpaceOnUse">
      <stop stop-color="#9C27B0" />
      <stop offset="1" stop-color="#6A1B9A" />
    </linearGradient>
  </defs>
</svg>